<svg xmlns="http://www.w3.org/2000/svg" viewBox="0 0 620 420" font-family="Menlo, monospace" font-size="13">
  <defs>
    <marker id="arrow" viewBox="0 0 10 10" refX="5" refY="5" markerWidth="6" markerHeight="6" orient="auto-start-reverse">
      <path d="M0,0 L10,5 L0,10 z" fill="#c0392b"/>
    </marker>
  </defs>
  <rect x="0" y="0" width="620" height="420" fill="#ffffff"/>
  <text x="20" y="24" font-size="16" font-weight="bold" fill="#1a1a1a">knuckle_hinge — top view</text>

  <!-- leaves -->
  <rect x="60" y="60" width="110" height="140" fill="#f4d35e" stroke="#2c3e50" stroke-width="2"/>
  <rect x="230" y="60" width="110" height="140" fill="#f4d35e" stroke="#2c3e50" stroke-width="2"/>

  <!-- pin along the axis, under the knuckles, sticking out past the leaves -->
  <line x1="200" y1="54" x2="200" y2="230" stroke="#7f8c8d" stroke-width="6" stroke-linecap="round"/>
  <line x1="200" y1="220" x2="420" y2="222" stroke="#1a1a1a" stroke-width="1"/>
  <text x="424" y="228" fill="#1a1a1a">pin (print_pin)</text>

  <!-- knuckle segments alternate along the axis: leaf 1 owns 1st/3rd/5th, leaf 2 the 2nd/4th -->
  <g fill="#e8b923" stroke="#2c3e50" stroke-width="2">
    <rect x="166" y="62"  width="50" height="24" rx="4"/>
    <rect x="184" y="90"  width="50" height="24" rx="4"/>
    <rect x="166" y="118" width="50" height="24" rx="4"/>
    <rect x="184" y="146" width="50" height="24" rx="4"/>
    <rect x="166" y="174" width="50" height="24" rx="4"/>
  </g>

  <!-- leaf_width dimension -->
  <line x1="60" y1="250" x2="170" y2="250" stroke="#c0392b" stroke-width="1.5" marker-start="url(#arrow)" marker-end="url(#arrow)"/>
  <line x1="60" y1="242" x2="60" y2="258" stroke="#c0392b" stroke-width="1"/>
  <line x1="170" y1="242" x2="170" y2="258" stroke="#c0392b" stroke-width="1"/>
  <text x="72" y="270" fill="#1a5276">leaf_width</text>

  <!-- leaf_length dimension -->
  <line x1="35" y1="60" x2="35" y2="200" stroke="#c0392b" stroke-width="1.5" marker-start="url(#arrow)" marker-end="url(#arrow)"/>
  <text x="8" y="135" fill="#1a5276" transform="rotate(-90 8 135)">leaf_length</text>

  <!-- knuckle_od dimension (barrel width across the top knuckle) -->
  <line x1="184" y1="74" x2="216" y2="74" stroke="#c0392b" stroke-width="1.5" marker-start="url(#arrow)" marker-end="url(#arrow)"/>
  <line x1="216" y1="74" x2="254" y2="44" stroke="#c0392b" stroke-width="1"/>
  <text x="258" y="40" fill="#1a5276">knuckle_od</text>

  <!-- knuckle_count bracket -->
  <path d="M355,60 L365,60 L365,200 L355,200" fill="none" stroke="#1a5276" stroke-width="1.5"/>
  <text x="370" y="134" fill="#1a5276">knuckle_count = 5</text>

  <!-- side view -->
  <text x="20" y="320" font-size="16" font-weight="bold" fill="#1a1a1a">side view</text>
  <rect x="60" y="340" width="240" height="16" fill="#f4d35e" stroke="#2c3e50" stroke-width="2"/>
  <!-- barrel end-on: knuckle_od, bored knuckle (dashed) and pin, all resting on Z=0 -->
  <circle cx="200" cy="340" r="16" fill="#e8b923" stroke="#2c3e50" stroke-width="2"/>
  <circle cx="200" cy="340" r="9" fill="none" stroke="#1a5276" stroke-width="1.5" stroke-dasharray="3,2"/>
  <circle cx="200" cy="340" r="6.5" fill="#7f8c8d" stroke="#2c3e50" stroke-width="1.5"/>
  <line x1="209" y1="334" x2="250" y2="310" stroke="#c0392b" stroke-width="1"/>
  <text x="254" y="298" fill="#c0392b">pin_clearance</text>
  <text x="254" y="314" fill="#c0392b">(bore Ø − pin Ø, radial)</text>
  <line x1="330" y1="340" x2="330" y2="356" stroke="#c0392b" stroke-width="1.5" marker-start="url(#arrow)" marker-end="url(#arrow)"/>
  <text x="336" y="352" fill="#1a5276">leaf_thickness</text>

  <text x="20" y="400" fill="#555555">fn → circle resolution (knuckles + pin)</text>
</svg>
