<svg xmlns="http://www.w3.org/2000/svg" viewBox="0 0 620 470" font-family="Menlo, monospace" font-size="13">
  <defs>
    <marker id="arrow" viewBox="0 0 10 10" refX="5" refY="5" markerWidth="6" markerHeight="6" orient="auto-start-reverse">
      <path d="M0,0 L10,5 L0,10 z" fill="#c0392b"/>
    </marker>
  </defs>
  <rect x="0" y="0" width="620" height="470" fill="#ffffff"/>
  <text x="20" y="24" font-size="16" font-weight="bold" fill="#1a1a1a">removable_hinge — top view (lift-off)</text>

  <!-- leaves -->
  <rect x="60" y="60" width="110" height="200" fill="#f4d35e" stroke="#2c3e50" stroke-width="2"/>
  <rect x="230" y="60" width="110" height="200" fill="#f4d35e" stroke="#2c3e50" stroke-width="2"/>

  <!-- leaf 1: lower barrel half (owns Y lower half) with integral pin -->
  <rect x="184" y="164" width="32" height="96" rx="4" fill="#e8b923" stroke="#2c3e50" stroke-width="2"/>
  <!-- pin, integral to leaf 1, extends up into socket -->
  <rect x="194" y="76" width="12" height="98" fill="#7f8c8d" stroke="#2c3e50" stroke-width="1.5"/>

  <!-- leaf 2: upper barrel half (socket), blind bore shown dashed -->
  <rect x="184" y="60" width="32" height="96" rx="4" fill="#e8b923" stroke="#2c3e50" stroke-width="2"/>
  <rect x="192" y="72" width="16" height="84" fill="none" stroke="#1a5276" stroke-width="1.5" stroke-dasharray="4,3"/>

  <!-- knuckle_gap between barrel halves -->
  <line x1="216" y1="160" x2="388" y2="172" stroke="#c0392b" stroke-width="1"/>
  <text x="394" y="176" fill="#c0392b">knuckle_gap</text>

  <!-- lift-off direction -->
  <line x1="200" y1="48" x2="200" y2="16" stroke="#c0392b" stroke-width="2" marker-end="url(#arrow)"/>
  <text x="212" y="40" fill="#c0392b">leaf 2 lifts off along the axis</text>

  <!-- pin_engagement callout -->
  <line x1="386" y1="72" x2="386" y2="156" stroke="#c0392b" stroke-width="1.5" marker-start="url(#arrow)" marker-end="url(#arrow)"/>
  <line x1="208" y1="72" x2="386" y2="72" stroke="#1a1a1a" stroke-width="0.75" stroke-dasharray="2,3"/>
  <line x1="208" y1="156" x2="386" y2="156" stroke="#1a1a1a" stroke-width="0.75" stroke-dasharray="2,3"/>
  <text x="394" y="118" fill="#1a5276">pin_engagement</text>

  <!-- pin_clearance callout -->
  <line x1="207" y1="100" x2="260" y2="90" stroke="#c0392b" stroke-width="1"/>
  <text x="264" y="88" fill="#c0392b">pin_clearance (radial)</text>

  <!-- screw holes -->
  <g fill="#ffffff" stroke="#2c3e50" stroke-width="2">
    <circle cx="115" cy="127" r="10"/>
    <circle cx="115" cy="193" r="10"/>
    <circle cx="285" cy="127" r="10"/>
    <circle cx="285" cy="193" r="10"/>
  </g>
  <line x1="285" y1="193" x2="400" y2="246" stroke="#1a1a1a" stroke-width="1"/>
  <text x="404" y="250" fill="#1a1a1a">countersunk screw holes</text>
  <text x="404" y="266" fill="#1a1a1a">(screws_per_leaf)</text>

  <!-- leaf_width dimension -->
  <line x1="230" y1="286" x2="340" y2="286" stroke="#c0392b" stroke-width="1.5" marker-start="url(#arrow)" marker-end="url(#arrow)"/>
  <text x="248" y="302" fill="#1a5276">leaf_width</text>

  <!-- leaf_length dimension -->
  <line x1="35" y1="60" x2="35" y2="260" stroke="#c0392b" stroke-width="1.5" marker-start="url(#arrow)" marker-end="url(#arrow)"/>
  <text x="8" y="165" fill="#1a5276" transform="rotate(-90 8 165)">leaf_length</text>

  <!-- knuckle_od dimension -->
  <line x1="184" y1="276" x2="216" y2="276" stroke="#c0392b" stroke-width="1.5" marker-start="url(#arrow)" marker-end="url(#arrow)"/>
  <text x="98" y="280" fill="#1a5276">knuckle_od</text>

  <!-- side view: barrel halves offset along the axis, pin bridges the gap -->
  <text x="20" y="340" font-size="16" font-weight="bold" fill="#1a1a1a">side view (along the leaf plane, axis horizontal)</text>

  <text x="60" y="366" fill="#1a1a1a">leaf 1 half + integral pin</text>
  <line x1="118" y1="372" x2="118" y2="398" stroke="#1a1a1a" stroke-width="1"/>
  <text x="300" y="366" fill="#1a1a1a">leaf 2 half, blind bore (dashed)</text>
  <line x1="320" y1="372" x2="250" y2="404" stroke="#1a1a1a" stroke-width="1"/>

  <!-- leaves edge-on, closed flat (drawn slightly past the barrel so the thickness reads) -->
  <rect x="44" y="418" width="272" height="14" fill="#f4d35e" stroke="#2c3e50" stroke-width="2"/>
  <!-- leaf 1 barrel half (left) and leaf 2 barrel half (right), offset along the axis -->
  <rect x="60" y="400" width="116" height="32" rx="4" fill="#e8b923" stroke="#2c3e50" stroke-width="2"/>
  <rect x="184" y="400" width="116" height="32" rx="4" fill="#e8b923" stroke="#2c3e50" stroke-width="2"/>
  <!-- blind bore inside leaf 2's half, open toward the gap -->
  <rect x="182" y="406" width="110" height="20" fill="none" stroke="#1a5276" stroke-width="1.5" stroke-dasharray="4,3"/>
  <!-- pin, integral to leaf 1, crossing the knuckle_gap into the socket -->
  <rect x="96" y="409" width="192" height="14" fill="#7f8c8d" stroke="#2c3e50" stroke-width="1.5"/>

  <line x1="330" y1="418" x2="330" y2="432" stroke="#c0392b" stroke-width="1.5" marker-start="url(#arrow)" marker-end="url(#arrow)"/>
  <text x="336" y="429" fill="#1a5276">leaf_thickness</text>

  <text x="20" y="458" fill="#555555">leaf 1 = pin side, leaf 2 = socket side; no tools to remove</text>
</svg>
