<svg xmlns="http://www.w3.org/2000/svg" viewBox="0 0 620 300" font-family="Menlo, monospace" font-size="13">
  <defs>
    <marker id="arrow" viewBox="0 0 10 10" refX="5" refY="5" markerWidth="6" markerHeight="6" orient="auto-start-reverse">
      <path d="M0,0 L10,5 L0,10 z" fill="#c0392b"/>
    </marker>
  </defs>
  <rect x="0" y="0" width="620" height="300" fill="#ffffff"/>
  <text x="20" y="24" font-size="16" font-weight="bold" fill="#1a1a1a">snap_lid_hinge — side view (no pin)</text>

  <!-- box leaf -->
  <rect x="60" y="120" width="90" height="40" fill="#f4d35e" stroke="#2c3e50" stroke-width="2"/>
  <!-- flex web -->
  <rect x="150" y="136" width="40" height="8" fill="#fef6e4" stroke="#2c3e50" stroke-width="2"/>
  <!-- detent bump -->
  <circle cx="170" cy="132" r="6" fill="#e8b923" stroke="#2c3e50" stroke-width="1.5"/>
  <!-- lid leaf -->
  <rect x="190" y="120" width="90" height="40" fill="#f4d35e" stroke="#2c3e50" stroke-width="2"/>

  <text x="70" y="112" fill="#1a1a1a">box side</text>
  <text x="205" y="112" fill="#1a1a1a">lid side</text>

  <!-- box_leaf_len -->
  <line x1="60" y1="180" x2="150" y2="180" stroke="#c0392b" stroke-width="1.5" marker-start="url(#arrow)" marker-end="url(#arrow)"/>
  <text x="65" y="198" fill="#1a5276">box_leaf_len</text>

  <!-- web_length -->
  <line x1="150" y1="200" x2="190" y2="200" stroke="#c0392b" stroke-width="1.5" marker-start="url(#arrow)" marker-end="url(#arrow)"/>
  <text x="148" y="218" fill="#1a5276">web_length</text>

  <!-- lid_leaf_len -->
  <line x1="190" y1="180" x2="280" y2="180" stroke="#c0392b" stroke-width="1.5" marker-start="url(#arrow)" marker-end="url(#arrow)"/>
  <text x="200" y="198" fill="#1a5276">lid_leaf_len</text>

  <!-- leaf_thickness -->
  <line x1="40" y1="120" x2="40" y2="160" stroke="#c0392b" stroke-width="1.5" marker-start="url(#arrow)" marker-end="url(#arrow)"/>
  <text x="4" y="145" fill="#1a5276">leaf_thickness</text>

  <!-- web_thickness -->
  <line x1="330" y1="136" x2="330" y2="144" stroke="#c0392b" stroke-width="1.5" marker-start="url(#arrow)" marker-end="url(#arrow)"/>
  <line x1="190" y1="140" x2="330" y2="140" stroke="#c0392b" stroke-width="1" stroke-dasharray="2,2"/>
  <text x="336" y="142" fill="#1a5276">web_thickness</text>

  <!-- bump_r -->
  <line x1="170" y1="132" x2="176" y2="132" stroke="#c0392b" stroke-width="1.5" marker-end="url(#arrow)"/>
  <line x1="176" y1="132" x2="336" y2="90" stroke="#c0392b" stroke-width="1"/>
  <text x="340" y="86" fill="#1a5276">bump_r (over-center detent radius,</text>
  <text x="340" y="102" fill="#1a5276">gives the snap-open/closed feel)</text>

  <!-- width -->
  <text x="20" y="255" fill="#1a5276">width — extrusion depth along the hinge axis (into the page here)</text>

  <text x="20" y="282" fill="#555555">pin-less: the thin web + bump flex and snap over-center, no assembly needed</text>
</svg>
